<svg width="595" height="116" viewBox="0 0 595 116" fill="none" xmlns="http://www.w3.org/2000/svg">
<path opacity="0.7" fill-rule="evenodd" clip-rule="evenodd" d="M0 118L9.91667 102.267C19.8333 86.5333 39.6667 55.0667 59.5 43.2667C79.3333 31.4667 99.1667 39.3333 119 41.3C138.833 43.2667 158.667 39.3333 178.5 49.1667C198.333 59 218.167 82.6 238 84.5667C257.833 86.5333 277.667 66.8667 297.5 51.1333C317.333 35.4 337.167 23.6 357 27.5333C376.833 31.4667 396.667 51.1333 416.5 55.0667C436.333 59 456.167 47.2 476 37.3667C495.833 27.5333 515.667 19.6667 535.5 13.7667C555.333 7.86667 575.167 3.93333 585.083 1.96667L595 0V118H585.083C575.167 118 555.333 118 535.5 118C515.667 118 495.833 118 476 118C456.167 118 436.333 118 416.5 118C396.667 118 376.833 118 357 118C337.167 118 317.333 118 297.5 118C277.667 118 257.833 118 238 118C218.167 118 198.333 118 178.5 118C158.667 118 138.833 118 119 118C99.1667 118 79.3333 118 59.5 118C39.6667 118 19.8333 118 9.91667 118H0Z" fill="#0099FF" fill-opacity="0.7"/>
</svg>
